


<svg xmlns="http://www.w3.org/2000/svg" xml:space="preserve" width="40" height="40" version="1.1" style="shape-rendering:geometricPrecision; text-rendering:geometricPrecision; image-rendering:optimizeQuality; fill-rule:evenodd; clip-rule:evenodd"
viewBox="0 0 790 772.05"
 xmlns:xlink="http://www.w3.org/1999/xlink">
 <g id="Слой_x0020_1">
  <metadata id="CorelCorpID_0Corel-Layer"/>
  <path class="fil0 str0" d="M287.56 553.77l109.18 0c18.77,0 31.94,-0.71 39.59,-2.14 13.26,-2.35 24.49,-6.33 33.47,-11.94 8.98,-5.61 16.33,-13.77 22.14,-24.49 5.82,-10.71 8.67,-23.06 8.67,-37.04 0,-16.43 -4.18,-30.61 -12.65,-42.75 -8.37,-12.14 -20,-20.61 -34.9,-25.51 -14.79,-4.9 -36.22,-7.35 -64.08,-7.35l-101.42 0 0 151.21zm0 -202.64l94.79 0c25.71,0 44.18,-1.73 55.3,-5.1 14.8,-4.39 25.92,-11.73 33.37,-21.94 7.45,-10.2 11.22,-22.96 11.22,-38.36 0,-14.59 -3.47,-27.45 -10.51,-38.47 -6.94,-11.12 -16.94,-18.77 -29.9,-22.86 -12.96,-4.08 -35.2,-6.12 -66.63,-6.12l-87.65 0 0 132.85zm-58.16 254.06l0 -438.34 164.48 0c33.47,0 60.3,4.39 80.61,13.26 20.2,8.88 36.02,22.55 47.45,41.02 11.53,18.37 17.24,37.65 17.24,57.85 0,18.67 -5.1,36.32 -15.2,52.85 -10.1,16.53 -25.41,29.9 -45.92,40.1 26.53,7.75 46.94,21.02 61.12,39.79 14.28,18.67 21.43,40.81 21.43,66.32 0,20.61 -4.39,39.69 -13.06,57.34 -8.67,17.65 -19.39,31.22 -32.14,40.81 -12.75,9.49 -28.77,16.73 -47.96,21.63 -19.28,4.9 -42.85,7.35 -70.81,7.35l-167.23 0zm-74.76 -604.81l480.72 0c84.96,0 154.26,69.29 154.26,154.26l0 462.77c0,84.96 -69.29,154.26 -154.26,154.26l-480.72 0c-84.96,0 -154.26,-69.29 -154.26,-154.26l0 -462.77c0,-84.96 69.29,-154.26 154.26,-154.26zm0 38.56c-63.68,0 -115.69,52.02 -115.69,115.69l0 462.77c0,63.68 52.02,115.69 115.69,115.69l480.72 0c63.68,0 115.69,-52.02 115.69,-115.69l0 -462.77c0,-63.68 -52.02,-115.69 -115.69,-115.69l-480.72 0z"/>
 </g>
</svg>
